<svg width="2164" height="707" viewBox="0 0 2164 707" fill="none" xmlns="http://www.w3.org/2000/svg">
<g filter="url(#filter0_d_72_33)">
<rect x="4" width="2156" height="699" rx="84" fill="url(#paint0_linear_72_33)"/>
</g>
<path d="M746.17 435.42C733.75 435.42 722.173 433.427 711.44 429.44C700.86 425.3 691.66 419.473 683.84 411.96C676.02 404.447 669.887 395.63 665.44 385.51C661.147 375.39 659 364.273 659 352.16C659 340.047 661.147 328.93 665.44 318.81C669.887 308.69 676.02 299.873 683.84 292.36C691.813 284.847 701.09 279.097 711.67 275.11C722.25 270.97 733.827 268.9 746.4 268.9C760.353 268.9 772.927 271.353 784.12 276.26C795.467 281.013 804.973 288.067 812.64 297.42L788.72 319.5C783.2 313.213 777.067 308.537 770.32 305.47C763.573 302.25 756.213 300.64 748.24 300.64C740.727 300.64 733.827 301.867 727.54 304.32C721.253 306.773 715.81 310.3 711.21 314.9C706.61 319.5 703.007 324.943 700.4 331.23C697.947 337.517 696.72 344.493 696.72 352.16C696.72 359.827 697.947 366.803 700.4 373.09C703.007 379.377 706.61 384.82 711.21 389.42C715.81 394.02 721.253 397.547 727.54 400C733.827 402.453 740.727 403.68 748.24 403.68C756.213 403.68 763.573 402.147 770.32 399.08C777.067 395.86 783.2 391.03 788.72 384.59L812.64 406.67C804.973 416.023 795.467 423.153 784.12 428.06C772.927 432.967 760.277 435.42 746.17 435.42ZM910.482 307.08C920.295 307.08 929.035 309.073 936.702 313.06C944.522 316.893 950.655 322.873 955.102 331C959.548 338.973 961.772 349.247 961.772 361.82V432.66H925.892V367.34C925.892 357.373 923.668 350.013 919.222 345.26C914.928 340.507 908.795 338.13 900.822 338.13C895.148 338.13 890.012 339.357 885.412 341.81C880.965 344.11 877.438 347.713 874.832 352.62C872.378 357.527 871.152 363.813 871.152 371.48V432.66H835.272V262H871.152V343.19L863.102 332.84C867.548 324.56 873.912 318.197 882.192 313.75C890.472 309.303 899.902 307.08 910.482 307.08ZM1056.6 434.5C1042.5 434.5 1030.08 431.74 1019.34 426.22C1008.76 420.7 1000.56 413.187 994.734 403.68C988.907 394.02 985.994 383.057 985.994 370.79C985.994 358.37 988.83 347.407 994.504 337.9C1000.33 328.24 1008.23 320.727 1018.19 315.36C1028.16 309.84 1039.43 307.08 1052 307.08C1064.12 307.08 1075 309.687 1084.66 314.9C1094.48 319.96 1102.22 327.32 1107.89 336.98C1113.57 346.487 1116.4 357.91 1116.4 371.25C1116.4 372.63 1116.33 374.24 1116.17 376.08C1116.02 377.767 1115.87 379.377 1115.71 380.91H1015.2V359.98H1096.85L1083.05 366.19C1083.05 359.75 1081.75 354.153 1079.14 349.4C1076.54 344.647 1072.93 340.967 1068.33 338.36C1063.73 335.6 1058.37 334.22 1052.23 334.22C1046.1 334.22 1040.66 335.6 1035.9 338.36C1031.3 340.967 1027.7 344.723 1025.09 349.63C1022.49 354.383 1021.18 360.057 1021.18 366.65V372.17C1021.18 378.917 1022.64 384.897 1025.55 390.11C1028.62 395.17 1032.84 399.08 1038.2 401.84C1043.72 404.447 1050.16 405.75 1057.52 405.75C1064.12 405.75 1069.87 404.753 1074.77 402.76C1079.83 400.767 1084.43 397.777 1088.57 393.79L1107.66 414.49C1101.99 420.93 1094.86 425.913 1086.27 429.44C1077.69 432.813 1067.8 434.5 1056.6 434.5ZM1200.09 434.5C1186.75 434.5 1174.87 431.817 1164.44 426.45C1154.02 420.93 1145.81 413.34 1139.83 403.68C1134 394.02 1131.09 383.057 1131.09 370.79C1131.09 358.37 1134 347.407 1139.83 337.9C1145.81 328.24 1154.02 320.727 1164.44 315.36C1174.87 309.84 1186.75 307.08 1200.09 307.08C1213.13 307.08 1224.47 309.84 1234.13 315.36C1243.79 320.727 1250.92 328.47 1255.52 338.59L1227.69 353.54C1224.47 347.713 1220.41 343.42 1215.5 340.66C1210.75 337.9 1205.54 336.52 1199.86 336.52C1193.73 336.52 1188.21 337.9 1183.3 340.66C1178.4 343.42 1174.49 347.33 1171.57 352.39C1168.81 357.45 1167.43 363.583 1167.43 370.79C1167.43 377.997 1168.81 384.13 1171.57 389.19C1174.49 394.25 1178.4 398.16 1183.3 400.92C1188.21 403.68 1193.73 405.06 1199.86 405.06C1205.54 405.06 1210.75 403.757 1215.5 401.15C1220.41 398.39 1224.47 394.02 1227.69 388.04L1255.52 403.22C1250.92 413.187 1243.79 420.93 1234.13 426.45C1224.47 431.817 1213.13 434.5 1200.09 434.5ZM1305.18 407.36L1306.1 363.66L1363.83 308.92H1406.61L1351.18 365.27L1332.55 380.45L1305.18 407.36ZM1275.51 432.66V262H1311.39V432.66H1275.51ZM1367.74 432.66L1325.88 380.68L1348.42 352.85L1411.21 432.66H1367.74ZM1464.37 344.11H1541.65V374.01H1464.37V344.11ZM1467.13 432.66H1429.87V271.66H1551.54V301.56H1467.13V432.66ZM1574.24 432.66V262H1610.12V432.66H1574.24ZM1702.3 434.5C1689.11 434.5 1677.38 431.74 1667.11 426.22C1656.99 420.7 1648.94 413.187 1642.96 403.68C1637.13 394.02 1634.22 383.057 1634.22 370.79C1634.22 358.37 1637.13 347.407 1642.96 337.9C1648.94 328.24 1656.99 320.727 1667.11 315.36C1677.38 309.84 1689.11 307.08 1702.3 307.08C1715.33 307.08 1726.98 309.84 1737.26 315.36C1747.53 320.727 1755.58 328.163 1761.41 337.67C1767.23 347.177 1770.15 358.217 1770.15 370.79C1770.15 383.057 1767.23 394.02 1761.41 403.68C1755.58 413.187 1747.53 420.7 1737.26 426.22C1726.98 431.74 1715.33 434.5 1702.3 434.5ZM1702.3 405.06C1708.28 405.06 1713.64 403.68 1718.4 400.92C1723.15 398.16 1726.91 394.25 1729.67 389.19C1732.43 383.977 1733.81 377.843 1733.81 370.79C1733.81 363.583 1732.43 357.45 1729.67 352.39C1726.91 347.33 1723.15 343.42 1718.4 340.66C1713.64 337.9 1708.28 336.52 1702.3 336.52C1696.32 336.52 1690.95 337.9 1686.2 340.66C1681.44 343.42 1677.61 347.33 1674.7 352.39C1671.94 357.45 1670.56 363.583 1670.56 370.79C1670.56 377.843 1671.94 383.977 1674.7 389.19C1677.61 394.25 1681.44 398.16 1686.2 400.92C1690.95 403.68 1696.32 405.06 1702.3 405.06ZM1819.05 432.66L1774.43 308.92H1808.24L1845.27 415.41H1829.17L1867.81 308.92H1898.17L1935.66 415.41H1919.56L1957.74 308.92H1989.48L1944.63 432.66H1909.9L1877.01 341.35H1887.59L1853.55 432.66H1819.05Z" fill="white"/>
<path d="M682.642 220.56C678.815 220.56 675.385 219.58 672.352 217.62C669.365 215.66 666.985 212.813 665.212 209.08C663.485 205.347 662.622 200.82 662.622 195.5C662.622 190.18 663.485 185.653 665.212 181.92C666.985 178.187 669.365 175.34 672.352 173.38C675.385 171.42 678.815 170.44 682.642 170.44C686.422 170.44 689.828 171.42 692.862 173.38C695.895 175.34 698.275 178.187 700.002 181.92C701.728 185.653 702.592 190.18 702.592 195.5C702.592 200.82 701.728 205.347 700.002 209.08C698.275 212.813 695.895 215.66 692.862 217.62C689.828 219.58 686.422 220.56 682.642 220.56ZM682.642 214.33C685.208 214.33 687.448 213.63 689.362 212.23C691.322 210.83 692.838 208.73 693.912 205.93C695.032 203.13 695.592 199.653 695.592 195.5C695.592 191.347 695.032 187.87 693.912 185.07C692.838 182.27 691.322 180.17 689.362 178.77C687.448 177.37 685.208 176.67 682.642 176.67C680.075 176.67 677.812 177.37 675.852 178.77C673.892 180.17 672.352 182.27 671.232 185.07C670.158 187.87 669.622 191.347 669.622 195.5C669.622 199.653 670.158 203.13 671.232 205.93C672.352 208.73 673.892 210.83 675.852 212.23C677.812 213.63 680.075 214.33 682.642 214.33ZM713.111 220.42C711.804 220.42 710.684 219.977 709.751 219.09C708.818 218.157 708.351 216.99 708.351 215.59C708.351 214.19 708.818 213.047 709.751 212.16C710.684 211.273 711.804 210.83 713.111 210.83C714.371 210.83 715.444 211.273 716.331 212.16C717.264 213.047 717.731 214.19 717.731 215.59C717.731 216.99 717.264 218.157 716.331 219.09C715.444 219.977 714.371 220.42 713.111 220.42ZM731.722 220V173.8L734.732 177.09H720.662V171H738.652V220H731.722ZM753.99 220.42C752.683 220.42 751.563 219.977 750.63 219.09C749.696 218.157 749.23 216.99 749.23 215.59C749.23 214.19 749.696 213.047 750.63 212.16C751.563 211.273 752.683 210.83 753.99 210.83C755.25 210.83 756.323 211.273 757.21 212.16C758.143 213.047 758.61 214.19 758.61 215.59C758.61 216.99 758.143 218.157 757.21 219.09C756.323 219.977 755.25 220.42 753.99 220.42ZM784.429 220.56C780.602 220.56 777.172 219.58 774.139 217.62C771.152 215.66 768.772 212.813 766.999 209.08C765.272 205.347 764.409 200.82 764.409 195.5C764.409 190.18 765.272 185.653 766.999 181.92C768.772 178.187 771.152 175.34 774.139 173.38C777.172 171.42 780.602 170.44 784.429 170.44C788.209 170.44 791.615 171.42 794.649 173.38C797.682 175.34 800.062 178.187 801.789 181.92C803.515 185.653 804.379 190.18 804.379 195.5C804.379 200.82 803.515 205.347 801.789 209.08C800.062 212.813 797.682 215.66 794.649 217.62C791.615 219.58 788.209 220.56 784.429 220.56ZM784.429 214.33C786.995 214.33 789.235 213.63 791.149 212.23C793.109 210.83 794.625 208.73 795.699 205.93C796.819 203.13 797.379 199.653 797.379 195.5C797.379 191.347 796.819 187.87 795.699 185.07C794.625 182.27 793.109 180.17 791.149 178.77C789.235 177.37 786.995 176.67 784.429 176.67C781.862 176.67 779.599 177.37 777.639 178.77C775.679 180.17 774.139 182.27 773.019 185.07C771.945 187.87 771.409 191.347 771.409 195.5C771.409 199.653 771.945 203.13 773.019 205.93C774.139 208.73 775.679 210.83 777.639 212.23C779.599 213.63 781.862 214.33 784.429 214.33Z" fill="white"/>
<path d="M381.173 351.077C388.672 338.831 384.823 322.825 372.577 315.327C360.331 307.828 344.325 311.677 336.827 323.923L381.173 351.077ZM274.5 475.5V501.5H289.067L296.673 489.077L274.5 475.5ZM217.5 475.5L194.913 488.377L202.394 501.5H217.5V475.5ZM187 422L164.478 409.01L157.029 421.925L164.413 434.877L187 422ZM318.5 194V168H303.481L295.978 181.01L318.5 194ZM409.5 194L431.992 180.958L424.478 168H409.5V194ZM542 422.5L564.443 435.627L572.088 422.557L564.492 409.458L542 422.5ZM511 475.5L510.891 501.5L525.877 501.562L533.443 488.627L511 475.5ZM394.5 475.013L372.812 489.352L380.482 500.954L394.391 501.012L394.5 475.013ZM393.5 473.5L371.004 460.465L362.928 474.402L371.812 487.839L393.5 473.5ZM425.875 417.625L448.371 430.66L425.875 417.625ZM545.496 263.035L558.531 240.538L513.538 214.469L500.504 236.965L545.496 263.035ZM336.827 323.923L252.327 461.923L296.673 489.077L381.173 351.077L336.827 323.923ZM274.5 449.5H217.5V501.5H274.5V449.5ZM240.087 462.623L209.587 409.123L164.413 434.877L194.913 488.377L240.087 462.623ZM209.522 434.99L341.022 206.99L295.978 181.01L164.478 409.01L209.522 434.99ZM318.5 220H409.5V168H318.5V220ZM387.008 207.042L519.508 435.542L564.492 409.458L431.992 180.958L387.008 207.042ZM519.557 409.373L488.557 462.373L533.443 488.627L564.443 435.627L519.557 409.373ZM511.109 449.5L394.609 449.013L394.391 501.012L510.891 501.5L511.109 449.5ZM416.188 460.673L415.188 459.161L371.812 487.839L372.812 489.352L416.188 460.673ZM415.996 486.535L448.371 430.66L403.379 404.59L371.004 460.465L415.996 486.535ZM448.371 430.66L545.496 263.035L500.504 236.965L403.379 404.59L448.371 430.66Z" fill="white"/>
<path d="M568.604 171.67L568.604 250.2L500.595 210.935L568.604 171.67Z" fill="white"/>
<path d="M568.604 171.67L568.604 250.2L500.595 210.935L568.604 171.67Z" fill="white"/>
<path d="M568.604 171.67L568.604 250.2L500.595 210.935L568.604 171.67Z" fill="white"/>
<defs>
<filter id="filter0_d_72_33" x="0" y="0" width="2164" height="707" filterUnits="userSpaceOnUse" color-interpolation-filters="sRGB">
<feFlood flood-opacity="0" result="BackgroundImageFix"/>
<feColorMatrix in="SourceAlpha" type="matrix" values="0 0 0 0 0 0 0 0 0 0 0 0 0 0 0 0 0 0 127 0" result="hardAlpha"/>
<feOffset dy="4"/>
<feGaussianBlur stdDeviation="2"/>
<feComposite in2="hardAlpha" operator="out"/>
<feColorMatrix type="matrix" values="0 0 0 0 0 0 0 0 0 0 0 0 0 0 0 0 0 0 0.25 0"/>
<feBlend mode="normal" in2="BackgroundImageFix" result="effect1_dropShadow_72_33"/>
<feBlend mode="normal" in="SourceGraphic" in2="effect1_dropShadow_72_33" result="shape"/>
</filter>
<linearGradient id="paint0_linear_72_33" x1="2160" y1="0" x2="1731.19" y2="1278.37" gradientUnits="userSpaceOnUse">
<stop stop-color="#FD5531"/>
<stop offset="1" stop-color="#FF0984"/>
</linearGradient>
</defs>
</svg>
