<svg width="1902" height="276" viewBox="0 0 1902 276" fill="none" xmlns="http://www.w3.org/2000/svg">
<path fill-rule="evenodd" clip-rule="evenodd" d="M511.937 252C498.196 252 485.198 248.958 472.943 242.874C460.688 236.79 450.754 228.033 443.141 216.603C435.714 205.173 432 191.806 432 176.505C432 161.387 435.714 148.113 443.141 136.683C450.754 125.253 460.688 116.495 472.943 110.412C485.198 104.143 498.196 101.009 511.937 101.009C523.635 101.009 534.776 103.222 545.36 107.646C555.943 112.071 565.135 118.708 572.934 127.557C580.732 136.222 586.117 146.915 589.088 159.636H542.017C535.518 147.837 525.491 141.937 511.937 141.937C502.095 141.937 494.018 145.256 487.705 151.893C481.392 158.345 478.235 166.549 478.235 176.505C478.235 186.46 481.392 194.756 487.705 201.393C494.018 208.03 502.095 211.349 511.937 211.349C525.306 211.349 535.333 205.449 542.017 193.65H589.088C586.117 206.371 580.732 217.156 572.934 226.005C565.32 234.67 556.129 241.215 545.36 245.64C534.776 249.88 523.635 252 511.937 252ZM701.405 101.009C712.361 101.009 722.202 103.59 730.929 108.752C739.656 113.914 746.433 121.104 751.261 130.322C756.275 139.356 758.781 149.68 758.781 161.295V248.405H712.268V171.803C712.268 162.77 710.04 155.58 705.583 150.233C701.312 144.887 695.185 142.214 687.201 142.214C679.402 142.214 672.996 144.979 667.982 150.51C663.155 155.856 660.741 162.954 660.741 171.803V248.405H614.227V49.2962H660.741V116.495C672.067 106.171 685.622 101.009 701.405 101.009ZM861.135 101.009C874.875 101.009 887.594 104.143 899.292 110.412C911.176 116.68 920.646 125.529 927.702 136.959C934.944 148.205 938.564 161.018 938.564 175.398C938.564 179.639 938.1 184.524 937.172 190.055H829.661C831.518 198.72 835.232 205.449 840.802 210.242C846.373 215.036 853.336 217.432 861.692 217.432C868.376 217.432 873.947 216.234 878.403 213.837C883.045 211.441 886.945 207.846 890.101 203.052H934.387C929.002 217.617 919.996 229.416 907.37 238.45C894.743 247.483 879.332 252 861.135 252C847.208 252 834.303 248.866 822.42 242.598C810.536 236.329 800.973 227.48 793.732 216.05C786.676 204.619 783.148 191.438 783.148 176.505C783.148 161.571 786.676 148.39 793.732 136.959C800.973 125.529 810.536 116.68 822.42 110.412C834.303 104.143 847.208 101.009 861.135 101.009ZM861.135 135.853C853.336 135.853 846.651 138.066 841.081 142.49C835.696 146.73 831.982 152.999 829.94 161.295H892.886C891.401 153.736 887.966 147.652 882.581 143.043C877.196 138.25 870.047 135.853 861.135 135.853ZM1034.17 252C1020.43 252 1007.43 248.958 995.177 242.874C982.922 236.79 972.988 228.033 965.375 216.603C957.947 205.173 954.234 191.806 954.234 176.505C954.234 161.387 957.947 148.113 965.375 136.683C972.988 125.253 982.922 116.495 995.177 110.412C1007.43 104.143 1020.43 101.009 1034.17 101.009C1045.87 101.009 1057.01 103.222 1067.59 107.646C1078.18 112.071 1087.37 118.708 1095.17 127.557C1102.97 136.222 1108.35 146.915 1111.32 159.636H1064.25C1057.75 147.837 1047.73 141.937 1034.17 141.937C1024.33 141.937 1016.25 145.256 1009.94 151.893C1003.63 158.345 1000.47 166.549 1000.47 176.505C1000.47 186.46 1003.63 194.756 1009.94 201.393C1016.25 208.03 1024.33 211.349 1034.17 211.349C1047.54 211.349 1057.57 205.449 1064.25 193.65H1111.32C1108.35 206.371 1102.97 217.156 1095.17 226.005C1087.55 234.67 1078.36 241.215 1067.59 245.64C1057.01 249.88 1045.87 252 1034.17 252ZM1232.07 185.064L1286.31 248.405H1232.55L1205.73 216.392L1232.07 185.064ZM1461.43 41V248.405H1414.92V79.1625H1379.26C1372.77 79.1625 1367.57 81.0983 1363.67 84.9699C1359.77 88.6571 1357.82 93.9113 1357.82 100.733V104.604H1390.96V145.256H1357.82V248.405H1311.3V145.256H1287.63V104.604H1311.3V95.2018C1311.3 78.2407 1315.95 64.9668 1325.23 55.3801C1334.7 45.7934 1348.07 41 1365.34 41H1461.43ZM1568.66 252C1554.73 252 1541.55 248.958 1529.11 242.874C1516.85 236.79 1506.92 228.033 1499.3 216.603C1491.88 205.173 1488.16 191.806 1488.16 176.505C1488.16 161.387 1491.88 148.113 1499.3 136.683C1506.92 125.253 1516.85 116.495 1529.11 110.412C1541.55 104.143 1554.73 101.009 1568.66 101.009C1582.58 101.009 1595.67 104.143 1607.93 110.412C1620.18 116.495 1630.03 125.253 1637.45 136.683C1645.07 148.113 1648.87 161.387 1648.87 176.505C1648.87 191.806 1645.07 205.173 1637.45 216.603C1630.03 228.033 1620.18 236.79 1607.93 242.874C1595.67 248.958 1582.58 252 1568.66 252ZM1568.66 210.796C1578.68 210.796 1586.85 207.569 1593.17 201.117C1599.67 194.664 1602.92 186.46 1602.92 176.505C1602.92 166.734 1599.67 158.622 1593.17 152.169C1586.85 145.532 1578.68 142.214 1568.66 142.214C1558.63 142.214 1550.37 145.532 1543.87 152.169C1537.56 158.622 1534.4 166.734 1534.4 176.505C1534.4 186.46 1537.56 194.664 1543.87 201.117C1550.37 207.569 1558.63 210.796 1568.66 210.796ZM1826.52 190.608L1856.32 104.604H1902L1846.3 248.405H1809.81L1779.45 166.273L1748.81 248.405H1713.16L1657.18 104.604H1703.41L1732.94 189.779L1763.85 104.604H1795.32L1826.52 190.608Z" fill="white"/>
<path d="M1136.46 248.405V103.082H1182.97V161.848L1230.05 104.604H1281.85L1223.08 174.569L1196.85 205.793L1182.97 222.315L1161.06 248.405H1136.46Z" fill="white"/>
<path d="M255 44.6775L321.585 83.1204L314.087 19.2215L255 44.6775Z" fill="white"/>
<path d="M175.219 161.198C181.928 150.249 178.49 135.935 167.541 129.227C156.592 122.518 142.278 125.956 135.57 136.905L175.219 161.198ZM92.3169 252V275.25H105.339L112.142 264.147L92.3169 252ZM49.7676 252L29.5725 263.52L36.2637 275.25H49.7676V252ZM27 212.089L6.86292 200.467L0.194653 212.022L6.8049 223.609L27 212.089ZM125.162 42V18.75L111.736 18.75L105.025 30.3784L125.162 42ZM193.092 42L213.201 30.3315L206.481 18.75H193.092V42ZM292 212.462L312.066 224.206L318.91 212.512L312.11 200.793L292 212.462ZM268.859 252L268.762 275.25L282.158 275.306L288.925 263.744L268.859 252ZM181.894 251.636L162.504 264.464L169.364 274.834L181.797 274.886L181.894 251.636ZM181.148 250.508L161.034 238.846L153.805 251.315L161.757 263.336L181.148 250.508ZM205.315 208.825L185.201 197.163L185.201 197.163L205.315 208.825ZM297.931 95.4379L309.592 75.3241L269.365 52.0006L257.703 72.1145L297.931 95.4379ZM135.57 136.905L72.4922 239.853L112.142 264.147L175.219 161.198L135.57 136.905ZM92.3169 228.75H49.7676V275.25H92.3169V228.75ZM69.9627 240.48L47.1951 200.568L6.8049 223.609L29.5725 263.52L69.9627 240.48ZM47.1371 223.71L145.299 53.6216L105.025 30.3784L6.86292 200.467L47.1371 223.71ZM125.162 65.25H193.092V18.75L125.162 18.75V65.25ZM172.982 53.6685L271.89 224.13L312.11 200.793L213.201 30.3315L172.982 53.6685ZM271.934 200.718L248.793 240.256L288.925 263.744L312.066 224.206L271.934 200.718ZM268.956 228.75L181.992 228.387L181.797 274.886L268.762 275.25L268.956 228.75ZM201.285 238.808L200.539 237.68L161.757 263.336L162.504 264.464L201.285 238.808ZM201.262 262.17L225.429 220.487L185.201 197.163L161.034 238.846L201.262 262.17ZM225.429 220.487L297.931 95.4379L257.703 72.1145L185.201 197.163L225.429 220.487Z" fill="white"/>
<path d="M247.5 182.5L274.5 136L290.5 163.5L260.5 204.5L247.5 182.5Z" fill="url(#paint0_linear_137_99)"/>
<path d="M247.5 89.5L220.5 136L204.5 108.5L234.5 67L247.5 89.5Z" fill="url(#paint1_linear_137_99)"/>
<defs>
<linearGradient id="paint0_linear_137_99" x1="257.5" y1="166.5" x2="274.5" y2="179" gradientUnits="userSpaceOnUse">
<stop stop-opacity="0.37"/>
<stop offset="1" stop-color="#D9D9D9" stop-opacity="0"/>
<stop offset="1" stop-color="#5A1717" stop-opacity="0"/>
</linearGradient>
<linearGradient id="paint1_linear_137_99" x1="237.5" y1="105.277" x2="220.413" y2="92.8048" gradientUnits="userSpaceOnUse">
<stop stop-opacity="0.37"/>
<stop offset="1" stop-color="#D9D9D9" stop-opacity="0"/>
<stop offset="1" stop-color="#5A1717" stop-opacity="0"/>
</linearGradient>
</defs>
</svg>
