<svg width="1947" height="350" viewBox="0 0 1947 350" fill="none" xmlns="http://www.w3.org/2000/svg">
<path d="M410.604 19.6325L410.604 98.1625L342.595 58.8975L410.604 19.6325Z" fill="white"/>
<path d="M224.173 199.04C231.672 186.794 227.823 170.788 215.577 163.289C203.331 155.791 187.325 159.64 179.827 171.886L224.173 199.04ZM117.5 323.463V349.463H132.067L139.673 337.04L117.5 323.463ZM60.5 323.463L37.9127 336.34L45.3941 349.463H60.5V323.463ZM30 269.963L7.47753 256.973L0.0288544 269.888L7.4127 282.84L30 269.963ZM161.5 41.9629V15.9629H146.481L138.978 28.973L161.5 41.9629ZM252.5 41.9629L274.992 28.9204L267.478 15.9629H252.5V41.9629ZM385 270.463L407.443 283.59L415.088 270.519L407.492 257.42L385 270.463ZM354 323.463L353.891 349.463L368.877 349.525L376.443 336.59L354 323.463ZM237.5 322.975L215.812 337.315L223.482 348.917L237.391 348.975L237.5 322.975ZM236.5 321.463L214.004 308.428L205.928 322.365L214.812 335.802L236.5 321.463ZM268.875 265.588L291.371 278.623L268.875 265.588ZM388.496 110.998L401.531 88.5013L356.538 62.4315L343.504 84.928L388.496 110.998ZM179.827 171.886L95.3266 309.886L139.673 337.04L224.173 199.04L179.827 171.886ZM117.5 297.463H60.5V349.463H117.5V297.463ZM83.0873 310.586L52.5873 257.086L7.4127 282.84L37.9127 336.34L83.0873 310.586ZM52.5225 282.953L184.022 54.9528L138.978 28.973L7.47753 256.973L52.5225 282.953ZM161.5 67.9629H252.5V15.9629H161.5V67.9629ZM230.008 55.0054L362.508 283.505L407.492 257.42L274.992 28.9204L230.008 55.0054ZM362.557 257.336L331.557 310.336L376.443 336.59L407.443 283.59L362.557 257.336ZM354.109 297.463L237.609 296.976L237.391 348.975L353.891 349.463L354.109 297.463ZM259.188 308.636L258.188 307.124L214.812 335.802L215.812 337.315L259.188 308.636ZM258.996 334.498L291.371 278.623L246.379 252.553L214.004 308.428L258.996 334.498ZM291.371 278.623L388.496 110.998L343.504 84.928L246.379 252.553L291.371 278.623Z" fill="white"/>
<path d="M594.5 337.037C581 337.037 568.417 334.87 556.75 330.537C545.25 326.037 535.25 319.704 526.75 311.537C518.25 303.37 511.583 293.787 506.75 282.787C502.083 271.787 499.75 259.704 499.75 246.537C499.75 233.37 502.083 221.287 506.75 210.287C511.583 199.287 518.25 189.704 526.75 181.537C535.417 173.37 545.5 167.12 557 162.787C568.5 158.287 581.083 156.037 594.75 156.037C609.917 156.037 623.583 158.704 635.75 164.037C648.083 169.204 658.417 176.87 666.75 187.037L640.75 211.037C634.75 204.204 628.083 199.12 620.75 195.787C613.417 192.287 605.417 190.537 596.75 190.537C588.583 190.537 581.083 191.87 574.25 194.537C567.417 197.204 561.5 201.037 556.5 206.037C551.5 211.037 547.583 216.954 544.75 223.787C542.083 230.62 540.75 238.204 540.75 246.537C540.75 254.87 542.083 262.454 544.75 269.287C547.583 276.12 551.5 282.037 556.5 287.037C561.5 292.037 567.417 295.87 574.25 298.537C581.083 301.204 588.583 302.537 596.75 302.537C605.417 302.537 613.417 300.87 620.75 297.537C628.083 294.037 634.75 288.787 640.75 281.787L666.75 305.787C658.417 315.954 648.083 323.704 635.75 329.037C623.583 334.37 609.833 337.037 594.5 337.037ZM773.1 197.537C783.766 197.537 793.266 199.704 801.6 204.037C810.1 208.204 816.766 214.704 821.6 223.537C826.433 232.204 828.85 243.37 828.85 257.037V334.037H789.85V263.037C789.85 252.204 787.433 244.204 782.6 239.037C777.933 233.87 771.266 231.287 762.6 231.287C756.433 231.287 750.85 232.62 745.85 235.287C741.016 237.787 737.183 241.704 734.35 247.037C731.683 252.37 730.35 259.204 730.35 267.537V334.037H691.35V148.537H730.35V236.787L721.6 225.537C726.433 216.537 733.35 209.62 742.35 204.787C751.35 199.954 761.6 197.537 773.1 197.537ZM931.928 336.037C916.594 336.037 903.094 333.037 891.428 327.037C879.928 321.037 871.011 312.87 864.678 302.537C858.344 292.037 855.178 280.12 855.178 266.787C855.178 253.287 858.261 241.37 864.428 231.037C870.761 220.537 879.344 212.37 890.178 206.537C901.011 200.537 913.261 197.537 926.928 197.537C940.094 197.537 951.928 200.37 962.428 206.037C973.094 211.537 981.511 219.537 987.678 230.037C993.844 240.37 996.928 252.787 996.928 267.287C996.928 268.787 996.844 270.537 996.678 272.537C996.511 274.37 996.344 276.12 996.178 277.787H886.928V255.037H975.678L960.678 261.787C960.678 254.787 959.261 248.704 956.428 243.537C953.594 238.37 949.678 234.37 944.678 231.537C939.678 228.537 933.844 227.037 927.178 227.037C920.511 227.037 914.594 228.537 909.428 231.537C904.428 234.37 900.511 238.454 897.678 243.787C894.844 248.954 893.428 255.12 893.428 262.287V268.287C893.428 275.62 895.011 282.12 898.178 287.787C901.511 293.287 906.094 297.537 911.928 300.537C917.928 303.37 924.928 304.787 932.928 304.787C940.094 304.787 946.344 303.704 951.678 301.537C957.178 299.37 962.178 296.12 966.678 291.787L987.428 314.287C981.261 321.287 973.511 326.704 964.178 330.537C954.844 334.204 944.094 336.037 931.928 336.037ZM1087.89 336.037C1073.39 336.037 1060.48 333.12 1049.14 327.287C1037.81 321.287 1028.89 313.037 1022.39 302.537C1016.06 292.037 1012.89 280.12 1012.89 266.787C1012.89 253.287 1016.06 241.37 1022.39 231.037C1028.89 220.537 1037.81 212.37 1049.14 206.537C1060.48 200.537 1073.39 197.537 1087.89 197.537C1102.06 197.537 1114.39 200.537 1124.89 206.537C1135.39 212.37 1143.14 220.787 1148.14 231.787L1117.89 248.037C1114.39 241.704 1109.98 237.037 1104.64 234.037C1099.48 231.037 1093.81 229.537 1087.64 229.537C1080.98 229.537 1074.98 231.037 1069.64 234.037C1064.31 237.037 1060.06 241.287 1056.89 246.787C1053.89 252.287 1052.39 258.954 1052.39 266.787C1052.39 274.62 1053.89 281.287 1056.89 286.787C1060.06 292.287 1064.31 296.537 1069.64 299.537C1074.98 302.537 1080.98 304.037 1087.64 304.037C1093.81 304.037 1099.48 302.62 1104.64 299.787C1109.98 296.787 1114.39 292.037 1117.89 285.537L1148.14 302.037C1143.14 312.87 1135.39 321.287 1124.89 327.287C1114.39 333.12 1102.06 336.037 1087.89 336.037ZM1202.12 306.537L1203.12 259.037L1265.87 199.537H1312.37L1252.12 260.787L1231.87 277.287L1202.12 306.537ZM1169.87 334.037V148.537H1208.87V334.037H1169.87ZM1270.12 334.037L1224.62 277.537L1249.12 247.287L1317.37 334.037H1270.12ZM1375.15 237.787H1459.15V270.287H1375.15V237.787ZM1378.15 334.037H1337.65V159.037H1469.9V191.537H1378.15V334.037ZM1494.57 334.037V148.537H1533.57V334.037H1494.57ZM1633.77 336.037C1619.43 336.037 1606.68 333.037 1595.52 327.037C1584.52 321.037 1575.77 312.87 1569.27 302.537C1562.93 292.037 1559.77 280.12 1559.77 266.787C1559.77 253.287 1562.93 241.37 1569.27 231.037C1575.77 220.537 1584.52 212.37 1595.52 206.537C1606.68 200.537 1619.43 197.537 1633.77 197.537C1647.93 197.537 1660.6 200.537 1671.77 206.537C1682.93 212.37 1691.68 220.454 1698.02 230.787C1704.35 241.12 1707.52 253.12 1707.52 266.787C1707.52 280.12 1704.35 292.037 1698.02 302.537C1691.68 312.87 1682.93 321.037 1671.77 327.037C1660.6 333.037 1647.93 336.037 1633.77 336.037ZM1633.77 304.037C1640.27 304.037 1646.1 302.537 1651.27 299.537C1656.43 296.537 1660.52 292.287 1663.52 286.787C1666.52 281.12 1668.02 274.454 1668.02 266.787C1668.02 258.954 1666.52 252.287 1663.52 246.787C1660.52 241.287 1656.43 237.037 1651.27 234.037C1646.1 231.037 1640.27 229.537 1633.77 229.537C1627.27 229.537 1621.43 231.037 1616.27 234.037C1611.1 237.037 1606.93 241.287 1603.77 246.787C1600.77 252.287 1599.27 258.954 1599.27 266.787C1599.27 274.454 1600.77 281.12 1603.77 286.787C1606.93 292.287 1611.1 296.537 1616.27 299.537C1621.43 302.537 1627.27 304.037 1633.77 304.037ZM1760.67 334.037L1712.17 199.537H1748.92L1789.17 315.287H1771.67L1813.67 199.537H1846.67L1887.42 315.287H1869.92L1911.42 199.537H1945.92L1897.17 334.037H1859.42L1823.67 234.787H1835.17L1798.17 334.037H1760.67Z" fill="white"/>
<path d="M507.664 100.04L508.816 87.656H542.128L543.184 100.04H507.664ZM525.232 70.472L515.824 92.168L516.592 95.72L508.24 113H489.904L525.232 41.576L560.656 113H542.224L534.16 96.392L534.736 92.264L525.232 70.472ZM566.033 45.8H582.257V99.08H609.233V113H566.033V45.8ZM615.086 45.8H631.31V113H615.086V45.8ZM625.262 59.144V45.8H638.414C644.11 45.8 648.878 46.696 652.719 48.488C656.622 50.216 659.566 52.712 661.551 55.976C663.535 59.24 664.527 63.176 664.527 67.784C664.527 72.264 663.535 76.168 661.551 79.496C659.566 82.76 656.622 85.288 652.719 87.08C648.878 88.808 644.11 89.672 638.414 89.672H625.262V76.328H638.414C641.679 76.328 644.239 75.592 646.094 74.12C647.951 72.648 648.879 70.536 648.879 67.784C648.879 64.968 647.951 62.824 646.094 61.352C644.239 59.88 641.679 59.144 638.414 59.144H625.262ZM677.746 84.872V70.28H728.626V84.872H677.746ZM718.354 45.8H734.578V113H718.354V45.8ZM673.234 45.8H689.458V113H673.234V45.8ZM757.598 100.04L758.75 87.656H792.062L793.118 100.04H757.598ZM775.166 70.472L765.758 92.168L766.526 95.72L758.174 113H739.838L775.166 41.576L810.59 113H792.158L784.094 96.392L784.67 92.264L775.166 70.472Z" fill="white"/>
</svg>
