<svg width="583" height="528" viewBox="0 0 583 528" fill="none" xmlns="http://www.w3.org/2000/svg">
<path d="M494.604 19.6325L494.604 98.1625L426.595 58.8975L494.604 19.6325Z" fill="white"/>
<path d="M308.173 199.04C315.672 186.794 311.823 170.788 299.577 163.289C287.331 155.791 271.325 159.64 263.827 171.886L308.173 199.04ZM201.5 323.463V349.463H216.067L223.673 337.04L201.5 323.463ZM144.5 323.463L121.913 336.34L129.394 349.463H144.5V323.463ZM114 269.963L91.4775 256.973L84.0289 269.888L91.4127 282.84L114 269.963ZM245.5 41.9629V15.9629H230.481L222.978 28.973L245.5 41.9629ZM336.5 41.9629L358.992 28.9204L351.478 15.9629H336.5V41.9629ZM469 270.463L491.443 283.59L499.088 270.519L491.492 257.42L469 270.463ZM438 323.463L437.891 349.463L452.877 349.525L460.443 336.59L438 323.463ZM321.5 322.975L299.812 337.315L307.482 348.917L321.391 348.975L321.5 322.975ZM320.5 321.463L298.004 308.428L289.928 322.365L298.812 335.802L320.5 321.463ZM352.875 265.588L375.371 278.623L352.875 265.588ZM472.496 110.998L485.531 88.5013L440.538 62.4315L427.504 84.928L472.496 110.998ZM263.827 171.886L179.327 309.886L223.673 337.04L308.173 199.04L263.827 171.886ZM201.5 297.463H144.5V349.463H201.5V297.463ZM167.087 310.586L136.587 257.086L91.4127 282.84L121.913 336.34L167.087 310.586ZM136.522 282.953L268.022 54.9528L222.978 28.973L91.4775 256.973L136.522 282.953ZM245.5 67.9629H336.5V15.9629H245.5V67.9629ZM314.008 55.0054L446.508 283.505L491.492 257.42L358.992 28.9204L314.008 55.0054ZM446.557 257.336L415.557 310.336L460.443 336.59L491.443 283.59L446.557 257.336ZM438.109 297.463L321.609 296.976L321.391 348.975L437.891 349.463L438.109 297.463ZM343.188 308.636L342.188 307.124L298.812 335.802L299.812 337.315L343.188 308.636ZM342.996 334.498L375.371 278.623L330.379 252.553L298.004 308.428L342.996 334.498ZM375.371 278.623L472.496 110.998L427.504 84.928L330.379 252.553L375.371 278.623Z" fill="white"/>
<path d="M41.8 458.2C36.4 458.2 31.3667 457.333 26.7 455.6C22.1 453.8 18.1 451.267 14.7 448C11.3 444.733 8.63333 440.9 6.7 436.5C4.83333 432.1 3.9 427.267 3.9 422C3.9 416.733 4.83333 411.9 6.7 407.5C8.63333 403.1 11.3 399.267 14.7 396C18.1667 392.733 22.2 390.233 26.8 388.5C31.4 386.7 36.4333 385.8 41.9 385.8C47.9667 385.8 53.4333 386.867 58.3 389C63.2333 391.067 67.3667 394.133 70.7 398.2L60.3 407.8C57.9 405.067 55.2333 403.033 52.3 401.7C49.3667 400.3 46.1667 399.6 42.7 399.6C39.4333 399.6 36.4333 400.133 33.7 401.2C30.9667 402.267 28.6 403.8 26.6 405.8C24.6 407.8 23.0333 410.167 21.9 412.9C20.8333 415.633 20.3 418.667 20.3 422C20.3 425.333 20.8333 428.367 21.9 431.1C23.0333 433.833 24.6 436.2 26.6 438.2C28.6 440.2 30.9667 441.733 33.7 442.8C36.4333 443.867 39.4333 444.4 42.7 444.4C46.1667 444.4 49.3667 443.733 52.3 442.4C55.2333 441 57.9 438.9 60.3 436.1L70.7 445.7C67.3667 449.767 63.2333 452.867 58.3 455C53.4333 457.133 47.9333 458.2 41.8 458.2ZM113.24 402.4C117.507 402.4 121.307 403.267 124.64 405C128.04 406.667 130.707 409.267 132.64 412.8C134.573 416.267 135.54 420.733 135.54 426.2V457H119.94V428.6C119.94 424.267 118.973 421.067 117.04 419C115.173 416.933 112.507 415.9 109.04 415.9C106.573 415.9 104.34 416.433 102.34 417.5C100.407 418.5 98.8732 420.067 97.7398 422.2C96.6732 424.333 96.1398 427.067 96.1398 430.4V457H80.5398V382.8H96.1398V418.1L92.6398 413.6C94.5732 410 97.3398 407.233 100.94 405.3C104.54 403.367 108.64 402.4 113.24 402.4ZM176.771 457.8C170.638 457.8 165.238 456.6 160.571 454.2C155.971 451.8 152.404 448.533 149.871 444.4C147.338 440.2 146.071 435.433 146.071 430.1C146.071 424.7 147.304 419.933 149.771 415.8C152.304 411.6 155.738 408.333 160.071 406C164.404 403.6 169.304 402.4 174.771 402.4C180.038 402.4 184.771 403.533 188.971 405.8C193.238 408 196.604 411.2 199.071 415.4C201.538 419.533 202.771 424.5 202.771 430.3C202.771 430.9 202.738 431.6 202.671 432.4C202.604 433.133 202.538 433.833 202.471 434.5H158.771V425.4H194.271L188.271 428.1C188.271 425.3 187.704 422.867 186.571 420.8C185.438 418.733 183.871 417.133 181.871 416C179.871 414.8 177.538 414.2 174.871 414.2C172.204 414.2 169.838 414.8 167.771 416C165.771 417.133 164.204 418.767 163.071 420.9C161.938 422.967 161.371 425.433 161.371 428.3V430.7C161.371 433.633 162.004 436.233 163.271 438.5C164.604 440.7 166.438 442.4 168.771 443.6C171.171 444.733 173.971 445.3 177.171 445.3C180.038 445.3 182.538 444.867 184.671 444C186.871 443.133 188.871 441.833 190.671 440.1L198.971 449.1C196.504 451.9 193.404 454.067 189.671 455.6C185.938 457.067 181.638 457.8 176.771 457.8ZM239.157 457.8C233.357 457.8 228.19 456.633 223.657 454.3C219.124 451.9 215.557 448.6 212.957 444.4C210.424 440.2 209.157 435.433 209.157 430.1C209.157 424.7 210.424 419.933 212.957 415.8C215.557 411.6 219.124 408.333 223.657 406C228.19 403.6 233.357 402.4 239.157 402.4C244.824 402.4 249.757 403.6 253.957 406C258.157 408.333 261.257 411.7 263.257 416.1L251.157 422.6C249.757 420.067 247.99 418.2 245.857 417C243.79 415.8 241.524 415.2 239.057 415.2C236.39 415.2 233.99 415.8 231.857 417C229.724 418.2 228.024 419.9 226.757 422.1C225.557 424.3 224.957 426.967 224.957 430.1C224.957 433.233 225.557 435.9 226.757 438.1C228.024 440.3 229.724 442 231.857 443.2C233.99 444.4 236.39 445 239.057 445C241.524 445 243.79 444.433 245.857 443.3C247.99 442.1 249.757 440.2 251.157 437.6L263.257 444.2C261.257 448.533 258.157 451.9 253.957 454.3C249.757 456.633 244.824 457.8 239.157 457.8ZM284.846 446L285.246 427L310.346 403.2H328.946L304.846 427.7L296.746 434.3L284.846 446ZM271.946 457V382.8H287.546V457H271.946ZM312.046 457L293.846 434.4L303.646 422.3L330.946 457H312.046ZM354.062 418.5H387.662V431.5H354.062V418.5ZM355.262 457H339.062V387H391.962V400H355.262V457ZM401.829 457V382.8H417.429V457H401.829ZM457.507 457.8C451.774 457.8 446.674 456.6 442.207 454.2C437.807 451.8 434.307 448.533 431.707 444.4C429.174 440.2 427.907 435.433 427.907 430.1C427.907 424.7 429.174 419.933 431.707 415.8C434.307 411.6 437.807 408.333 442.207 406C446.674 403.6 451.774 402.4 457.507 402.4C463.174 402.4 468.24 403.6 472.707 406C477.174 408.333 480.674 411.567 483.207 415.7C485.74 419.833 487.007 424.633 487.007 430.1C487.007 435.433 485.74 440.2 483.207 444.4C480.674 448.533 477.174 451.8 472.707 454.2C468.24 456.6 463.174 457.8 457.507 457.8ZM457.507 445C460.107 445 462.44 444.4 464.507 443.2C466.574 442 468.207 440.3 469.407 438.1C470.607 435.833 471.207 433.167 471.207 430.1C471.207 426.967 470.607 424.3 469.407 422.1C468.207 419.9 466.574 418.2 464.507 417C462.44 415.8 460.107 415.2 457.507 415.2C454.907 415.2 452.574 415.8 450.507 417C448.44 418.2 446.774 419.9 445.507 422.1C444.307 424.3 443.707 426.967 443.707 430.1C443.707 433.167 444.307 435.833 445.507 438.1C446.774 440.3 448.44 442 450.507 443.2C452.574 444.4 454.907 445 457.507 445ZM508.27 457L488.87 403.2H503.57L519.67 449.5H512.67L529.47 403.2H542.67L558.97 449.5H551.97L568.57 403.2H582.37L562.87 457H547.77L533.47 417.3H538.07L523.27 457H508.27Z" fill="white"/>
<path d="M190.36 507.6L190.84 502.44H204.72L205.16 507.6H190.36ZM197.68 495.28L193.76 504.32L194.08 505.8L190.6 513H182.96L197.68 483.24L212.44 513H204.76L201.4 506.08L201.64 504.36L197.68 495.28ZM235.374 485H242.134V507.2H253.374V513H235.374V485ZM276.507 485H283.267V513H276.507V485ZM280.747 490.56V485H286.227C288.6 485 290.587 485.373 292.187 486.12C293.814 486.84 295.04 487.88 295.867 489.24C296.694 490.6 297.107 492.24 297.107 494.16C297.107 496.027 296.694 497.653 295.867 499.04C295.04 500.4 293.814 501.453 292.187 502.2C290.587 502.92 288.6 503.28 286.227 503.28H280.747V497.72H286.227C287.587 497.72 288.654 497.413 289.427 496.8C290.2 496.187 290.587 495.307 290.587 494.16C290.587 492.987 290.2 492.093 289.427 491.48C288.654 490.867 287.587 490.56 286.227 490.56H280.747ZM323.309 501.28V495.2H344.509V501.28H323.309ZM340.229 485H346.989V513H340.229V485ZM321.429 485H328.189V513H321.429V485ZM377.274 507.6L377.754 502.44H391.634L392.074 507.6H377.274ZM384.594 495.28L380.674 504.32L380.994 505.8L377.514 513H369.874L384.594 483.24L399.354 513H391.674L388.314 506.08L388.554 504.36L384.594 495.28Z" fill="white"/>
</svg>
