<svg width="1830" height="350" viewBox="0 0 1830 350" fill="none" xmlns="http://www.w3.org/2000/svg">
<path d="M410.604 19.6325L410.604 98.1625L342.595 58.8975L410.604 19.6325Z" fill="white"/>
<path d="M224.173 199.04C231.672 186.794 227.823 170.788 215.577 163.289C203.331 155.791 187.325 159.64 179.827 171.886L224.173 199.04ZM117.5 323.463V349.463H132.067L139.673 337.04L117.5 323.463ZM60.5 323.463L37.9127 336.34L45.3941 349.463H60.5V323.463ZM30 269.963L7.47753 256.973L0.0288544 269.888L7.4127 282.84L30 269.963ZM161.5 41.9628V15.9628H146.481L138.978 28.9729L161.5 41.9628ZM252.5 41.9628L274.992 28.9204L267.478 15.9628H252.5V41.9628ZM385 270.463L407.443 283.59L415.088 270.519L407.492 257.42L385 270.463ZM354 323.463L353.891 349.463L368.877 349.525L376.443 336.59L354 323.463ZM237.5 322.975L215.812 337.314L223.482 348.917L237.391 348.975L237.5 322.975ZM236.5 321.463L214.004 308.428L205.928 322.365L214.812 335.802L236.5 321.463ZM268.875 265.588L291.371 278.623L268.875 265.588ZM388.496 110.998L401.531 88.5012L356.538 62.4315L343.504 84.928L388.496 110.998ZM179.827 171.886L95.3266 309.886L139.673 337.04L224.173 199.04L179.827 171.886ZM117.5 297.463H60.5V349.463H117.5V297.463ZM83.0873 310.586L52.5873 257.086L7.4127 282.84L37.9127 336.34L83.0873 310.586ZM52.5225 282.953L184.022 54.9528L138.978 28.9729L7.47753 256.973L52.5225 282.953ZM161.5 67.9628H252.5V15.9628H161.5V67.9628ZM230.008 55.0053L362.508 283.505L407.492 257.42L274.992 28.9204L230.008 55.0053ZM362.557 257.336L331.557 310.336L376.443 336.59L407.443 283.59L362.557 257.336ZM354.109 297.463L237.609 296.976L237.391 348.975L353.891 349.463L354.109 297.463ZM259.188 308.636L258.188 307.124L214.812 335.802L215.812 337.314L259.188 308.636ZM258.996 334.498L291.371 278.623L246.379 252.553L214.004 308.428L258.996 334.498ZM291.371 278.623L388.496 110.998L343.504 84.928L246.379 252.553L291.371 278.623Z" fill="white"/>
<path d="M586.14 264.797C573.72 264.797 562.143 262.804 551.41 258.817C540.83 254.677 531.63 248.85 523.81 241.337C515.99 233.824 509.857 225.007 505.41 214.887C501.117 204.767 498.97 193.65 498.97 181.537C498.97 169.424 501.117 158.307 505.41 148.187C509.857 138.067 515.99 129.25 523.81 121.737C531.783 114.224 541.06 108.474 551.64 104.487C562.22 100.347 573.797 98.2771 586.37 98.2771C600.323 98.2771 612.897 100.73 624.09 105.637C635.437 110.39 644.943 117.444 652.61 126.797L628.69 148.877C623.17 142.59 617.037 137.914 610.29 134.847C603.543 131.627 596.183 130.017 588.21 130.017C580.697 130.017 573.797 131.244 567.51 133.697C561.223 136.15 555.78 139.677 551.18 144.277C546.58 148.877 542.977 154.32 540.37 160.607C537.917 166.894 536.69 173.87 536.69 181.537C536.69 189.204 537.917 196.18 540.37 202.467C542.977 208.754 546.58 214.197 551.18 218.797C555.78 223.397 561.223 226.924 567.51 229.377C573.797 231.83 580.697 233.057 588.21 233.057C596.183 233.057 603.543 231.524 610.29 228.457C617.037 225.237 623.17 220.407 628.69 213.967L652.61 236.047C644.943 245.4 635.437 252.53 624.09 257.437C612.897 262.344 600.247 264.797 586.14 264.797ZM750.452 136.457C760.265 136.457 769.005 138.45 776.672 142.437C784.492 146.27 790.625 152.25 795.072 160.377C799.518 168.35 801.742 178.624 801.742 191.197V262.037H765.862V196.717C765.862 186.75 763.638 179.39 759.192 174.637C754.898 169.884 748.765 167.507 740.792 167.507C735.118 167.507 729.982 168.734 725.382 171.187C720.935 173.487 717.408 177.09 714.802 181.997C712.348 186.904 711.122 193.19 711.122 200.857V262.037H675.242V91.3771H711.122V172.567L703.072 162.217C707.518 153.937 713.882 147.574 722.162 143.127C730.442 138.68 739.872 136.457 750.452 136.457ZM896.574 263.877C882.467 263.877 870.047 261.117 859.314 255.597C848.734 250.077 840.53 242.564 834.704 233.057C828.877 223.397 825.964 212.434 825.964 200.167C825.964 187.747 828.8 176.784 834.474 167.277C840.3 157.617 848.197 150.104 858.164 144.737C868.13 139.217 879.4 136.457 891.974 136.457C904.087 136.457 914.974 139.064 924.634 144.277C934.447 149.337 942.19 156.697 947.864 166.357C953.537 175.864 956.374 187.287 956.374 200.627C956.374 202.007 956.297 203.617 956.144 205.457C955.99 207.144 955.837 208.754 955.684 210.287H855.174V189.357H936.824L923.024 195.567C923.024 189.127 921.72 183.53 919.114 178.777C916.507 174.024 912.904 170.344 908.304 167.737C903.704 164.977 898.337 163.597 892.204 163.597C886.07 163.597 880.627 164.977 875.874 167.737C871.274 170.344 867.67 174.1 865.064 179.007C862.457 183.76 861.154 189.434 861.154 196.027V201.547C861.154 208.294 862.61 214.274 865.524 219.487C868.59 224.547 872.807 228.457 878.174 231.217C883.694 233.824 890.134 235.127 897.494 235.127C904.087 235.127 909.837 234.13 914.744 232.137C919.804 230.144 924.404 227.154 928.544 223.167L947.634 243.867C941.96 250.307 934.83 255.29 926.244 258.817C917.657 262.19 907.767 263.877 896.574 263.877ZM1040.06 263.877C1026.72 263.877 1014.84 261.194 1004.41 255.827C993.985 250.307 985.781 242.717 979.801 233.057C973.975 223.397 971.061 212.434 971.061 200.167C971.061 187.747 973.975 176.784 979.801 167.277C985.781 157.617 993.985 150.104 1004.41 144.737C1014.84 139.217 1026.72 136.457 1040.06 136.457C1053.09 136.457 1064.44 139.217 1074.1 144.737C1083.76 150.104 1090.89 157.847 1095.49 167.967L1067.66 182.917C1064.44 177.09 1060.38 172.797 1055.47 170.037C1050.72 167.277 1045.5 165.897 1039.83 165.897C1033.7 165.897 1028.18 167.277 1023.27 170.037C1018.36 172.797 1014.45 176.707 1011.54 181.767C1008.78 186.827 1007.4 192.96 1007.4 200.167C1007.4 207.374 1008.78 213.507 1011.54 218.567C1014.45 223.627 1018.36 227.537 1023.27 230.297C1028.18 233.057 1033.7 234.437 1039.83 234.437C1045.5 234.437 1050.72 233.134 1055.47 230.527C1060.38 227.767 1064.44 223.397 1067.66 217.417L1095.49 232.597C1090.89 242.564 1083.76 250.307 1074.1 255.827C1064.44 261.194 1053.09 263.877 1040.06 263.877ZM1145.15 236.737L1146.07 193.037L1203.8 138.297H1246.58L1191.15 194.647L1172.52 209.827L1145.15 236.737ZM1115.48 262.037V91.3771H1151.36V262.037H1115.48ZM1207.71 262.037L1165.85 210.057L1188.39 182.227L1251.18 262.037H1207.71ZM1304.34 173.487H1381.62V203.387H1304.34V173.487ZM1307.1 262.037H1269.84V101.037H1391.51V130.937H1307.1V262.037ZM1414.21 262.037V91.3771H1450.09V262.037H1414.21ZM1542.27 263.877C1529.08 263.877 1517.35 261.117 1507.08 255.597C1496.96 250.077 1488.91 242.564 1482.93 233.057C1477.1 223.397 1474.19 212.434 1474.19 200.167C1474.19 187.747 1477.1 176.784 1482.93 167.277C1488.91 157.617 1496.96 150.104 1507.08 144.737C1517.35 139.217 1529.08 136.457 1542.27 136.457C1555.3 136.457 1566.95 139.217 1577.23 144.737C1587.5 150.104 1595.55 157.54 1601.38 167.047C1607.2 176.554 1610.12 187.594 1610.12 200.167C1610.12 212.434 1607.2 223.397 1601.38 233.057C1595.55 242.564 1587.5 250.077 1577.23 255.597C1566.95 261.117 1555.3 263.877 1542.27 263.877ZM1542.27 234.437C1548.25 234.437 1553.61 233.057 1558.37 230.297C1563.12 227.537 1566.88 223.627 1569.64 218.567C1572.4 213.354 1573.78 207.22 1573.78 200.167C1573.78 192.96 1572.4 186.827 1569.64 181.767C1566.88 176.707 1563.12 172.797 1558.37 170.037C1553.61 167.277 1548.25 165.897 1542.27 165.897C1536.29 165.897 1530.92 167.277 1526.17 170.037C1521.41 172.797 1517.58 176.707 1514.67 181.767C1511.91 186.827 1510.53 192.96 1510.53 200.167C1510.53 207.22 1511.91 213.354 1514.67 218.567C1517.58 223.627 1521.41 227.537 1526.17 230.297C1530.92 233.057 1536.29 234.437 1542.27 234.437ZM1659.02 262.037L1614.4 138.297H1648.21L1685.24 244.787H1669.14L1707.78 138.297H1738.14L1775.63 244.787H1759.53L1797.71 138.297H1829.45L1784.6 262.037H1749.87L1716.98 170.727H1727.56L1693.52 262.037H1659.02Z" fill="white"/>
</svg>
