<svg width="3271" height="188" viewBox="0 0 3271 188" fill="none" xmlns="http://www.w3.org/2000/svg">
<path d="M52.5758 150.2C42.1758 150.2 32.1758 148.533 22.5758 145.2C13.1091 141.733 5.77578 137.333 0.575782 132L6.37578 120.6C11.3091 125.4 17.9091 129.467 26.1758 132.8C34.5758 136 43.3758 137.6 52.5758 137.6C61.3758 137.6 68.5091 136.533 73.9758 134.4C79.5758 132.133 83.6425 129.133 86.1758 125.4C88.8425 121.667 90.1758 117.533 90.1758 113C90.1758 107.533 88.5758 103.133 85.3758 99.8C82.3091 96.4667 78.2425 93.8667 73.1758 92C68.1091 90 62.5091 88.2667 56.3758 86.8C50.2424 85.3333 44.1091 83.8 37.9758 82.2C31.8424 80.4667 26.1758 78.2 20.9758 75.4C15.9091 72.6 11.7758 68.9333 8.57578 64.4C5.50912 59.7333 3.97578 53.6667 3.97578 46.2C3.97578 39.2667 5.77578 32.9333 9.37578 27.2C13.1091 21.3333 18.7758 16.6667 26.3758 13.2C33.9758 9.59999 43.7091 7.79999 55.5758 7.79999C63.4425 7.79999 71.2425 8.93333 78.9758 11.2C86.7091 13.3333 93.3758 16.3333 98.9758 20.2L93.9758 32C87.9758 28 81.5758 25.0667 74.7758 23.2C68.1091 21.3333 61.6425 20.4 55.3758 20.4C46.9758 20.4 40.0425 21.5333 34.5758 23.8C29.1091 26.0667 25.0424 29.1333 22.3758 33C19.8424 36.7333 18.5758 41 18.5758 45.8C18.5758 51.2667 20.1091 55.6667 23.1758 59C26.3758 62.3333 30.5091 64.9333 35.5758 66.8C40.7758 68.6667 46.4424 70.3333 52.5758 71.8C58.7091 73.2667 64.7758 74.8667 70.7758 76.6C76.9091 78.3333 82.5091 80.6 87.5758 83.4C92.7758 86.0667 96.9091 89.6667 99.9758 94.2C103.176 98.7333 104.776 104.667 104.776 112C104.776 118.8 102.909 125.133 99.1758 131C95.4425 136.733 89.7091 141.4 81.9758 145C74.3758 148.467 64.5758 150.2 52.5758 150.2ZM134.023 149V44H148.223V149H134.023ZM141.223 20.8C138.289 20.8 135.823 19.8 133.823 17.8C131.823 15.8 130.823 13.4 130.823 10.6C130.823 7.79999 131.823 5.46665 133.823 3.59999C135.823 1.59999 138.289 0.599991 141.223 0.599991C144.156 0.599991 146.623 1.53332 148.623 3.39999C150.623 5.26666 151.623 7.59999 151.623 10.4C151.623 13.3333 150.623 15.8 148.623 17.8C146.756 19.8 144.289 20.8 141.223 20.8ZM220.934 150C211.067 150 203.467 147.333 198.134 142C192.8 136.667 190.134 129.133 190.134 119.4V20.8H204.334V118.6C204.334 124.733 205.867 129.467 208.934 132.8C212.134 136.133 216.667 137.8 222.534 137.8C228.8 137.8 234 136 238.134 132.4L243.134 142.6C240.334 145.133 236.934 147 232.934 148.2C229.067 149.4 225.067 150 220.934 150ZM171.334 55.8V44H236.334V55.8H171.334ZM309.873 150C298.939 150 289.339 147.733 281.073 143.2C272.806 138.533 266.339 132.2 261.673 124.2C257.006 116.067 254.673 106.8 254.673 96.4C254.673 86 256.873 76.8 261.273 68.8C265.806 60.8 271.939 54.5333 279.673 50C287.539 45.3333 296.339 43 306.073 43C315.939 43 324.673 45.2667 332.273 49.8C340.006 54.2 346.073 60.4667 350.473 68.6C354.873 76.6 357.073 85.8667 357.073 96.4C357.073 97.0667 357.006 97.8 356.873 98.6C356.873 99.2667 356.873 100 356.873 100.8H265.473V90.2H349.273L343.673 94.4C343.673 86.8 342.006 80.0667 338.673 74.2C335.473 68.2 331.073 63.5333 325.473 60.2C319.873 56.8667 313.406 55.2 306.073 55.2C298.873 55.2 292.406 56.8667 286.673 60.2C280.939 63.5333 276.473 68.2 273.273 74.2C270.073 80.2 268.473 87.0667 268.473 94.8V97C268.473 105 270.206 112.067 273.673 118.2C277.273 124.2 282.206 128.933 288.473 132.4C294.873 135.733 302.139 137.4 310.273 137.4C316.673 137.4 322.606 136.267 328.073 134C333.673 131.733 338.473 128.267 342.473 123.6L350.473 132.8C345.806 138.4 339.939 142.667 332.873 145.6C325.939 148.533 318.273 150 309.873 150ZM482.92 150C471.986 150 462.386 147.733 454.12 143.2C445.853 138.533 439.386 132.2 434.72 124.2C430.053 116.067 427.72 106.8 427.72 96.4C427.72 86 429.92 76.8 434.32 68.8C438.853 60.8 444.986 54.5333 452.72 50C460.586 45.3333 469.386 43 479.12 43C488.986 43 497.72 45.2667 505.32 49.8C513.053 54.2 519.12 60.4667 523.52 68.6C527.92 76.6 530.12 85.8667 530.12 96.4C530.12 97.0667 530.053 97.8 529.92 98.6C529.92 99.2667 529.92 100 529.92 100.8H438.52V90.2H522.32L516.72 94.4C516.72 86.8 515.053 80.0667 511.72 74.2C508.52 68.2 504.12 63.5333 498.52 60.2C492.92 56.8667 486.453 55.2 479.12 55.2C471.92 55.2 465.453 56.8667 459.72 60.2C453.986 63.5333 449.52 68.2 446.32 74.2C443.12 80.2 441.52 87.0667 441.52 94.8V97C441.52 105 443.253 112.067 446.72 118.2C450.32 124.2 455.253 128.933 461.52 132.4C467.92 135.733 475.186 137.4 483.32 137.4C489.72 137.4 495.653 136.267 501.12 134C506.72 131.733 511.52 128.267 515.52 123.6L523.52 132.8C518.853 138.4 512.986 142.667 505.92 145.6C498.986 148.533 491.32 150 482.92 150ZM612.623 43C621.156 43 628.623 44.6667 635.023 48C641.556 51.2 646.623 56.1333 650.223 62.8C653.956 69.4667 655.823 77.8667 655.823 88V149H641.623V89.4C641.623 78.3333 638.823 70 633.223 64.4C627.756 58.6667 620.023 55.8 610.023 55.8C602.556 55.8 596.023 57.3333 590.423 60.4C584.956 63.3333 580.689 67.6667 577.623 73.4C574.689 79 573.223 85.8 573.223 93.8V149H559.023V44H572.623V72.8L570.423 67.4C573.756 59.8 579.089 53.8667 586.423 49.6C593.756 45.2 602.489 43 612.623 43ZM790.123 150C779.723 150 770.389 147.733 762.123 143.2C753.989 138.533 747.589 132.2 742.923 124.2C738.256 116.067 735.923 106.8 735.923 96.4C735.923 85.8667 738.256 76.6 742.923 68.6C747.589 60.6 753.989 54.3333 762.123 49.8C770.389 45.2667 779.723 43 790.123 43C799.056 43 807.123 44.7333 814.323 48.2C821.523 51.6667 827.189 56.8667 831.323 63.8L820.723 71C817.123 65.6667 812.656 61.7333 807.323 59.2C801.989 56.6667 796.189 55.4 789.923 55.4C782.456 55.4 775.723 57.1333 769.723 60.6C763.723 63.9333 758.989 68.6667 755.523 74.8C752.056 80.9333 750.323 88.1333 750.323 96.4C750.323 104.667 752.056 111.867 755.523 118C758.989 124.133 763.723 128.933 769.723 132.4C775.723 135.733 782.456 137.4 789.923 137.4C796.189 137.4 801.989 136.133 807.323 133.6C812.656 131.067 817.123 127.2 820.723 122L831.323 129.2C827.189 136 821.523 141.2 814.323 144.8C807.123 148.267 799.056 150 790.123 150ZM900.26 150C890.127 150 880.993 147.733 872.86 143.2C864.86 138.533 858.527 132.2 853.86 124.2C849.193 116.067 846.86 106.8 846.86 96.4C846.86 85.8667 849.193 76.6 853.86 68.6C858.527 60.6 864.86 54.3333 872.86 49.8C880.86 45.2667 889.993 43 900.26 43C910.66 43 919.86 45.2667 927.86 49.8C935.993 54.3333 942.327 60.6 946.86 68.6C951.527 76.6 953.86 85.8667 953.86 96.4C953.86 106.8 951.527 116.067 946.86 124.2C942.327 132.2 935.993 138.533 927.86 143.2C919.727 147.733 910.527 150 900.26 150ZM900.26 137.4C907.86 137.4 914.593 135.733 920.46 132.4C926.327 128.933 930.927 124.133 934.26 118C937.727 111.733 939.46 104.533 939.46 96.4C939.46 88.1333 937.727 80.9333 934.26 74.8C930.927 68.6667 926.327 63.9333 920.46 60.6C914.593 57.1333 907.927 55.4 900.46 55.4C892.993 55.4 886.327 57.1333 880.46 60.6C874.593 63.9333 869.927 68.6667 866.46 74.8C862.993 80.9333 861.26 88.1333 861.26 96.4C861.26 104.533 862.993 111.733 866.46 118C869.927 124.133 874.593 128.933 880.46 132.4C886.327 135.733 892.927 137.4 900.26 137.4ZM1026.25 150C1017.32 150 1009.52 148.333 1002.85 145C996.184 141.667 990.984 136.667 987.251 130C983.651 123.333 981.851 115 981.851 105V44H996.051V103.4C996.051 114.6 998.784 123.067 1004.25 128.8C1009.85 134.4 1017.65 137.2 1027.65 137.2C1034.98 137.2 1041.32 135.733 1046.65 132.8C1052.12 129.733 1056.25 125.333 1059.05 119.6C1061.98 113.867 1063.45 107 1063.45 99V44H1077.65V149H1064.05V120.2L1066.25 125.4C1062.92 133.133 1057.72 139.2 1050.65 143.6C1043.72 147.867 1035.58 150 1026.25 150ZM1117.23 149V44H1130.83V72.6L1129.43 67.6C1132.36 59.6 1137.29 53.5333 1144.23 49.4C1151.16 45.1333 1159.76 43 1170.03 43V56.8C1169.49 56.8 1168.96 56.8 1168.43 56.8C1167.89 56.6667 1167.36 56.6 1166.83 56.6C1155.76 56.6 1147.09 60 1140.83 66.8C1134.56 73.4667 1131.43 83 1131.43 95.4V149H1117.23ZM1225.31 150C1216.64 150 1208.44 148.8 1200.71 146.4C1192.98 143.867 1186.91 140.733 1182.51 137L1188.91 125.8C1193.18 129 1198.64 131.8 1205.31 134.2C1211.98 136.467 1218.98 137.6 1226.31 137.6C1236.31 137.6 1243.51 136.067 1247.91 133C1252.31 129.8 1254.51 125.6 1254.51 120.4C1254.51 116.533 1253.24 113.533 1250.71 111.4C1248.31 109.133 1245.11 107.467 1241.11 106.4C1237.11 105.2 1232.64 104.2 1227.71 103.4C1222.78 102.6 1217.84 101.667 1212.91 100.6C1208.11 99.5333 1203.71 98 1199.71 96C1195.71 93.8667 1192.44 91 1189.91 87.4C1187.51 83.8 1186.31 79 1186.31 73C1186.31 67.2667 1187.91 62.1333 1191.11 57.6C1194.31 53.0667 1198.98 49.5333 1205.11 47C1211.38 44.3333 1218.98 43 1227.91 43C1234.71 43 1241.51 43.9333 1248.31 45.8C1255.11 47.5333 1260.71 49.8667 1265.11 52.8L1258.91 64.2C1254.24 61 1249.24 58.7333 1243.91 57.4C1238.58 55.9333 1233.24 55.2 1227.91 55.2C1218.44 55.2 1211.44 56.8667 1206.91 60.2C1202.51 63.4 1200.31 67.5333 1200.31 72.6C1200.31 76.6 1201.51 79.7333 1203.91 82C1206.44 84.2667 1209.71 86.0667 1213.71 87.4C1217.84 88.6 1222.31 89.6 1227.11 90.4C1232.04 91.2 1236.91 92.2 1241.71 93.4C1246.64 94.4667 1251.11 96 1255.11 98C1259.24 99.8667 1262.51 102.6 1264.91 106.2C1267.44 109.667 1268.71 114.267 1268.71 120C1268.71 126.133 1266.98 131.467 1263.51 136C1260.18 140.4 1255.24 143.867 1248.71 146.4C1242.31 148.8 1234.51 150 1225.31 150ZM1388.91 150C1378.91 150 1369.91 147.733 1361.91 143.2C1354.04 138.667 1347.84 132.4 1343.31 124.4C1338.78 116.267 1336.51 106.933 1336.51 96.4C1336.51 85.7333 1338.78 76.4 1343.31 68.4C1347.84 60.4 1354.04 54.2 1361.91 49.8C1369.91 45.2667 1378.91 43 1388.91 43C1398.11 43 1406.31 45.0667 1413.51 49.2C1420.84 53.3333 1426.64 59.4 1430.91 67.4C1435.31 75.2667 1437.51 84.9333 1437.51 96.4C1437.51 107.733 1435.38 117.4 1431.11 125.4C1426.84 133.4 1421.04 139.533 1413.71 143.8C1406.51 147.933 1398.24 150 1388.91 150ZM1389.91 137.4C1397.38 137.4 1404.04 135.733 1409.91 132.4C1415.91 128.933 1420.58 124.133 1423.91 118C1427.38 111.733 1429.11 104.533 1429.11 96.4C1429.11 88.1333 1427.38 80.9333 1423.91 74.8C1420.58 68.6667 1415.91 63.9333 1409.91 60.6C1404.04 57.1333 1397.38 55.4 1389.91 55.4C1382.58 55.4 1375.98 57.1333 1370.11 60.6C1364.24 63.9333 1359.58 68.6667 1356.11 74.8C1352.64 80.9333 1350.91 88.1333 1350.91 96.4C1350.91 104.533 1352.64 111.733 1356.11 118C1359.58 124.133 1364.24 128.933 1370.11 132.4C1375.98 135.733 1382.58 137.4 1389.91 137.4ZM1429.51 149V117.4L1430.91 96.2L1428.91 75V0.599991H1443.11V149H1429.51ZM1527.26 150C1516.32 150 1506.72 147.733 1498.46 143.2C1490.19 138.533 1483.72 132.2 1479.06 124.2C1474.39 116.067 1472.06 106.8 1472.06 96.4C1472.06 86 1474.26 76.8 1478.66 68.8C1483.19 60.8 1489.32 54.5333 1497.06 50C1504.92 45.3333 1513.72 43 1523.46 43C1533.32 43 1542.06 45.2667 1549.66 49.8C1557.39 54.2 1563.46 60.4667 1567.86 68.6C1572.26 76.6 1574.46 85.8667 1574.46 96.4C1574.46 97.0667 1574.39 97.8 1574.26 98.6C1574.26 99.2667 1574.26 100 1574.26 100.8H1482.86V90.2H1566.66L1561.06 94.4C1561.06 86.8 1559.39 80.0667 1556.06 74.2C1552.86 68.2 1548.46 63.5333 1542.86 60.2C1537.26 56.8667 1530.79 55.2 1523.46 55.2C1516.26 55.2 1509.79 56.8667 1504.06 60.2C1498.32 63.5333 1493.86 68.2 1490.66 74.2C1487.46 80.2 1485.86 87.0667 1485.86 94.8V97C1485.86 105 1487.59 112.067 1491.06 118.2C1494.66 124.2 1499.59 128.933 1505.86 132.4C1512.26 135.733 1519.52 137.4 1527.66 137.4C1534.06 137.4 1539.99 136.267 1545.46 134C1551.06 131.733 1555.86 128.267 1559.86 123.6L1567.86 132.8C1563.19 138.4 1557.32 142.667 1550.26 145.6C1543.32 148.533 1535.66 150 1527.26 150ZM1697.5 150C1687.5 150 1678.5 147.733 1670.5 143.2C1662.64 138.667 1656.44 132.4 1651.9 124.4C1647.37 116.267 1645.1 106.933 1645.1 96.4C1645.1 85.7333 1647.37 76.4 1651.9 68.4C1656.44 60.4 1662.64 54.2 1670.5 49.8C1678.5 45.2667 1687.5 43 1697.5 43C1706.7 43 1714.9 45.0667 1722.1 49.2C1729.44 53.3333 1735.24 59.4 1739.5 67.4C1743.9 75.2667 1746.1 84.9333 1746.1 96.4C1746.1 107.733 1743.97 117.4 1739.7 125.4C1735.44 133.4 1729.64 139.533 1722.3 143.8C1715.1 147.933 1706.84 150 1697.5 150ZM1698.5 137.4C1705.97 137.4 1712.64 135.733 1718.5 132.4C1724.5 128.933 1729.17 124.133 1732.5 118C1735.97 111.733 1737.7 104.533 1737.7 96.4C1737.7 88.1333 1735.97 80.9333 1732.5 74.8C1729.17 68.6667 1724.5 63.9333 1718.5 60.6C1712.64 57.1333 1705.97 55.4 1698.5 55.4C1691.17 55.4 1684.57 57.1333 1678.7 60.6C1672.84 63.9333 1668.17 68.6667 1664.7 74.8C1661.24 80.9333 1659.5 88.1333 1659.5 96.4C1659.5 104.533 1661.24 111.733 1664.7 118C1668.17 124.133 1672.84 128.933 1678.7 132.4C1684.57 135.733 1691.17 137.4 1698.5 137.4ZM1738.1 149V117.4L1739.5 96.2L1737.5 75V0.599991H1751.7V149H1738.1ZM1835.85 150C1824.92 150 1815.32 147.733 1807.05 143.2C1798.78 138.533 1792.32 132.2 1787.65 124.2C1782.98 116.067 1780.65 106.8 1780.65 96.4C1780.65 86 1782.85 76.8 1787.25 68.8C1791.78 60.8 1797.92 54.5333 1805.65 50C1813.52 45.3333 1822.32 43 1832.05 43C1841.92 43 1850.65 45.2667 1858.25 49.8C1865.98 54.2 1872.05 60.4667 1876.45 68.6C1880.85 76.6 1883.05 85.8667 1883.05 96.4C1883.05 97.0667 1882.98 97.8 1882.85 98.6C1882.85 99.2667 1882.85 100 1882.85 100.8H1791.45V90.2H1875.25L1869.65 94.4C1869.65 86.8 1867.98 80.0667 1864.65 74.2C1861.45 68.2 1857.05 63.5333 1851.45 60.2C1845.85 56.8667 1839.38 55.2 1832.05 55.2C1824.85 55.2 1818.38 56.8667 1812.65 60.2C1806.92 63.5333 1802.45 68.2 1799.25 74.2C1796.05 80.2 1794.45 87.0667 1794.45 94.8V97C1794.45 105 1796.18 112.067 1799.65 118.2C1803.25 124.2 1808.18 128.933 1814.45 132.4C1820.85 135.733 1828.12 137.4 1836.25 137.4C1842.65 137.4 1848.58 136.267 1854.05 134C1859.65 131.733 1864.45 128.267 1868.45 123.6L1876.45 132.8C1871.78 138.4 1865.92 142.667 1858.85 145.6C1851.92 148.533 1844.25 150 1835.85 150ZM1818.85 27.6L1846.25 2.8H1865.25L1832.85 27.6H1818.85ZM1937 149L1890.4 44H1905.2L1948 141.4H1941L1984.4 44H1998.4L1951.6 149H1937ZM2060.07 150C2049.13 150 2039.53 147.733 2031.27 143.2C2023 138.533 2016.53 132.2 2011.87 124.2C2007.2 116.067 2004.87 106.8 2004.87 96.4C2004.87 86 2007.07 76.8 2011.47 68.8C2016 60.8 2022.13 54.5333 2029.87 50C2037.73 45.3333 2046.53 43 2056.27 43C2066.13 43 2074.87 45.2667 2082.47 49.8C2090.2 54.2 2096.27 60.4667 2100.67 68.6C2105.07 76.6 2107.27 85.8667 2107.27 96.4C2107.27 97.0667 2107.2 97.8 2107.07 98.6C2107.07 99.2667 2107.07 100 2107.07 100.8H2015.67V90.2H2099.47L2093.87 94.4C2093.87 86.8 2092.2 80.0667 2088.87 74.2C2085.67 68.2 2081.27 63.5333 2075.67 60.2C2070.07 56.8667 2063.6 55.2 2056.27 55.2C2049.07 55.2 2042.6 56.8667 2036.87 60.2C2031.13 63.5333 2026.67 68.2 2023.47 74.2C2020.27 80.2 2018.67 87.0667 2018.67 94.8V97C2018.67 105 2020.4 112.067 2023.87 118.2C2027.47 124.2 2032.4 128.933 2038.67 132.4C2045.07 135.733 2052.33 137.4 2060.47 137.4C2066.87 137.4 2072.8 136.267 2078.27 134C2083.87 131.733 2088.67 128.267 2092.67 123.6L2100.67 132.8C2096 138.4 2090.13 142.667 2083.07 145.6C2076.13 148.533 2068.47 150 2060.07 150ZM2136.17 149V0.599991H2150.37V149H2136.17ZM2232.68 150C2222.55 150 2213.42 147.733 2205.28 143.2C2197.28 138.533 2190.95 132.2 2186.28 124.2C2181.62 116.067 2179.28 106.8 2179.28 96.4C2179.28 85.8667 2181.62 76.6 2186.28 68.6C2190.95 60.6 2197.28 54.3333 2205.28 49.8C2213.28 45.2667 2222.42 43 2232.68 43C2243.08 43 2252.28 45.2667 2260.28 49.8C2268.42 54.3333 2274.75 60.6 2279.28 68.6C2283.95 76.6 2286.28 85.8667 2286.28 96.4C2286.28 106.8 2283.95 116.067 2279.28 124.2C2274.75 132.2 2268.42 138.533 2260.28 143.2C2252.15 147.733 2242.95 150 2232.68 150ZM2232.68 137.4C2240.28 137.4 2247.02 135.733 2252.88 132.4C2258.75 128.933 2263.35 124.133 2266.68 118C2270.15 111.733 2271.88 104.533 2271.88 96.4C2271.88 88.1333 2270.15 80.9333 2266.68 74.8C2263.35 68.6667 2258.75 63.9333 2252.88 60.6C2247.02 57.1333 2240.35 55.4 2232.88 55.4C2225.42 55.4 2218.75 57.1333 2212.88 60.6C2207.02 63.9333 2202.35 68.6667 2198.88 74.8C2195.42 80.9333 2193.68 88.1333 2193.68 96.4C2193.68 104.533 2195.42 111.733 2198.88 118C2202.35 124.133 2207.02 128.933 2212.88 132.4C2218.75 135.733 2225.35 137.4 2232.68 137.4ZM2369.47 150C2360.41 150 2352.21 147.933 2344.87 143.8C2337.54 139.533 2331.67 133.467 2327.27 125.6C2323.01 117.6 2320.87 107.867 2320.87 96.4C2320.87 84.9333 2323.01 75.2667 2327.27 67.4C2331.54 59.4 2337.34 53.3333 2344.67 49.2C2352.01 45.0667 2360.27 43 2369.47 43C2379.47 43 2388.41 45.2667 2396.27 49.8C2404.27 54.2 2410.54 60.4667 2415.07 68.6C2419.61 76.6 2421.87 85.8667 2421.87 96.4C2421.87 107.067 2419.61 116.4 2415.07 124.4C2410.54 132.4 2404.27 138.667 2396.27 143.2C2388.41 147.733 2379.47 150 2369.47 150ZM2315.27 187.8V44H2328.87V75.6L2327.47 96.6L2329.47 117.8V187.8H2315.27ZM2368.47 137.4C2375.94 137.4 2382.61 135.733 2388.47 132.4C2394.34 128.933 2399.01 124.133 2402.47 118C2405.94 111.733 2407.67 104.533 2407.67 96.4C2407.67 88.2667 2405.94 81.1333 2402.47 75C2399.01 68.8667 2394.34 64.0667 2388.47 60.6C2382.61 57.1333 2375.94 55.4 2368.47 55.4C2361.01 55.4 2354.27 57.1333 2348.27 60.6C2342.41 64.0667 2337.74 68.8667 2334.27 75C2330.94 81.1333 2329.27 88.2667 2329.27 96.4C2329.27 104.533 2330.94 111.733 2334.27 118C2337.74 124.133 2342.41 128.933 2348.27 132.4C2354.27 135.733 2361.01 137.4 2368.47 137.4ZM2505.02 150C2495.95 150 2487.75 147.933 2480.42 143.8C2473.09 139.533 2467.22 133.467 2462.82 125.6C2458.55 117.6 2456.42 107.867 2456.42 96.4C2456.42 84.9333 2458.55 75.2667 2462.82 67.4C2467.09 59.4 2472.89 53.3333 2480.22 49.2C2487.55 45.0667 2495.82 43 2505.02 43C2515.02 43 2523.95 45.2667 2531.82 49.8C2539.82 54.2 2546.09 60.4667 2550.62 68.6C2555.15 76.6 2557.42 85.8667 2557.42 96.4C2557.42 107.067 2555.15 116.4 2550.62 124.4C2546.09 132.4 2539.82 138.667 2531.82 143.2C2523.95 147.733 2515.02 150 2505.02 150ZM2450.82 187.8V44H2464.42V75.6L2463.02 96.6L2465.02 117.8V187.8H2450.82ZM2504.02 137.4C2511.49 137.4 2518.15 135.733 2524.02 132.4C2529.89 128.933 2534.55 124.133 2538.02 118C2541.49 111.733 2543.22 104.533 2543.22 96.4C2543.22 88.2667 2541.49 81.1333 2538.02 75C2534.55 68.8667 2529.89 64.0667 2524.02 60.6C2518.15 57.1333 2511.49 55.4 2504.02 55.4C2496.55 55.4 2489.82 57.1333 2483.82 60.6C2477.95 64.0667 2473.29 68.8667 2469.82 75C2466.49 81.1333 2464.82 88.2667 2464.82 96.4C2464.82 104.533 2466.49 111.733 2469.82 118C2473.29 124.133 2477.95 128.933 2483.82 132.4C2489.82 135.733 2496.55 137.4 2504.02 137.4ZM2630.97 150C2620.03 150 2610.43 147.733 2602.17 143.2C2593.9 138.533 2587.43 132.2 2582.77 124.2C2578.1 116.067 2575.77 106.8 2575.77 96.4C2575.77 86 2577.97 76.8 2582.37 68.8C2586.9 60.8 2593.03 54.5333 2600.77 50C2608.63 45.3333 2617.43 43 2627.17 43C2637.03 43 2645.77 45.2667 2653.37 49.8C2661.1 54.2 2667.17 60.4667 2671.57 68.6C2675.97 76.6 2678.17 85.8667 2678.17 96.4C2678.17 97.0667 2678.1 97.8 2677.97 98.6C2677.97 99.2667 2677.97 100 2677.97 100.8H2586.57V90.2H2670.37L2664.77 94.4C2664.77 86.8 2663.1 80.0667 2659.77 74.2C2656.57 68.2 2652.17 63.5333 2646.57 60.2C2640.97 56.8667 2634.5 55.2 2627.17 55.2C2619.97 55.2 2613.5 56.8667 2607.77 60.2C2602.03 63.5333 2597.57 68.2 2594.37 74.2C2591.17 80.2 2589.57 87.0667 2589.57 94.8V97C2589.57 105 2591.3 112.067 2594.77 118.2C2598.37 124.2 2603.3 128.933 2609.57 132.4C2615.97 135.733 2623.23 137.4 2631.37 137.4C2637.77 137.4 2643.7 136.267 2649.17 134C2654.77 131.733 2659.57 128.267 2663.57 123.6L2671.57 132.8C2666.9 138.4 2661.03 142.667 2653.97 145.6C2647.03 148.533 2639.37 150 2630.97 150ZM2838.27 43C2846.8 43 2854.2 44.6667 2860.47 48C2866.87 51.2 2871.8 56.1333 2875.27 62.8C2878.87 69.4667 2880.67 77.8667 2880.67 88V149H2866.47V89.4C2866.47 78.3333 2863.8 70 2858.47 64.4C2853.27 58.6667 2845.87 55.8 2836.27 55.8C2829.07 55.8 2822.8 57.3333 2817.47 60.4C2812.27 63.3333 2808.2 67.6667 2805.27 73.4C2802.47 79 2801.07 85.8 2801.07 93.8V149H2786.87V89.4C2786.87 78.3333 2784.2 70 2778.87 64.4C2773.54 58.6667 2766.07 55.8 2756.47 55.8C2749.4 55.8 2743.2 57.3333 2737.87 60.4C2732.54 63.3333 2728.4 67.6667 2725.47 73.4C2722.67 79 2721.27 85.8 2721.27 93.8V149H2707.07V44H2720.67V72.4L2718.47 67.4C2721.67 59.8 2726.8 53.8667 2733.87 49.6C2741.07 45.2 2749.54 43 2759.27 43C2769.54 43 2778.27 45.6 2785.47 50.8C2792.67 55.8667 2797.34 63.5333 2799.47 73.8L2793.87 71.6C2796.94 63.0667 2802.34 56.2 2810.07 51C2817.94 45.6667 2827.34 43 2838.27 43ZM2963.78 150C2952.85 150 2943.25 147.733 2934.98 143.2C2926.71 138.533 2920.25 132.2 2915.58 124.2C2910.91 116.067 2908.58 106.8 2908.58 96.4C2908.58 86 2910.78 76.8 2915.18 68.8C2919.71 60.8 2925.85 54.5333 2933.58 50C2941.45 45.3333 2950.25 43 2959.98 43C2969.85 43 2978.58 45.2667 2986.18 49.8C2993.91 54.2 2999.98 60.4667 3004.38 68.6C3008.78 76.6 3010.98 85.8667 3010.98 96.4C3010.98 97.0667 3010.91 97.8 3010.78 98.6C3010.78 99.2667 3010.78 100 3010.78 100.8H2919.38V90.2H3003.18L2997.58 94.4C2997.58 86.8 2995.91 80.0667 2992.58 74.2C2989.38 68.2 2984.98 63.5333 2979.38 60.2C2973.78 56.8667 2967.31 55.2 2959.98 55.2C2952.78 55.2 2946.31 56.8667 2940.58 60.2C2934.85 63.5333 2930.38 68.2 2927.18 74.2C2923.98 80.2 2922.38 87.0667 2922.38 94.8V97C2922.38 105 2924.11 112.067 2927.58 118.2C2931.18 124.2 2936.11 128.933 2942.38 132.4C2948.78 135.733 2956.05 137.4 2964.18 137.4C2970.58 137.4 2976.51 136.267 2981.98 134C2987.58 131.733 2992.38 128.267 2996.38 123.6L3004.38 132.8C2999.71 138.4 2993.85 142.667 2986.78 145.6C2979.85 148.533 2972.18 150 2963.78 150ZM3093.48 43C3102.02 43 3109.48 44.6667 3115.88 48C3122.42 51.2 3127.48 56.1333 3131.08 62.8C3134.82 69.4667 3136.68 77.8667 3136.68 88V149H3122.48V89.4C3122.48 78.3333 3119.68 70 3114.08 64.4C3108.62 58.6667 3100.88 55.8 3090.88 55.8C3083.42 55.8 3076.88 57.3333 3071.28 60.4C3065.82 63.3333 3061.55 67.6667 3058.48 73.4C3055.55 79 3054.08 85.8 3054.08 93.8V149H3039.88V44H3053.48V72.8L3051.28 67.4C3054.62 59.8 3059.95 53.8667 3067.28 49.6C3074.62 45.2 3083.35 43 3093.48 43ZM3208.24 150C3198.37 150 3190.77 147.333 3185.44 142C3180.1 136.667 3177.44 129.133 3177.44 119.4V20.8H3191.64V118.6C3191.64 124.733 3193.17 129.467 3196.24 132.8C3199.44 136.133 3203.97 137.8 3209.84 137.8C3216.1 137.8 3221.3 136 3225.44 132.4L3230.44 142.6C3227.64 145.133 3224.24 147 3220.24 148.2C3216.37 149.4 3212.37 150 3208.24 150ZM3158.64 55.8V44H3223.64V55.8H3158.64ZM3259.64 150C3256.71 150 3254.17 148.933 3252.04 146.8C3250.04 144.667 3249.04 142.067 3249.04 139C3249.04 135.8 3250.04 133.2 3252.04 131.2C3254.17 129.2 3256.71 128.2 3259.64 128.2C3262.57 128.2 3265.04 129.2 3267.04 131.2C3269.17 133.2 3270.24 135.8 3270.24 139C3270.24 142.067 3269.17 144.667 3267.04 146.8C3265.04 148.933 3262.57 150 3259.64 150Z" fill="#212121"/>
</svg>
