<?xml version="1.0" standalone="no"?>
<!DOCTYPE svg PUBLIC "-//W3C//DTD SVG 20010904//EN"
 "http://www.w3.org/TR/2001/REC-SVG-20010904/DTD/svg10.dtd">
<svg version="1.0" xmlns="http://www.w3.org/2000/svg"
 width="711.000000pt" height="711.000000pt" viewBox="0 0 711.000000 711.000000"
 preserveAspectRatio="xMidYMid meet">
<metadata>
Created by potrace 1.14, written by Peter Selinger 2001-2017
</metadata>
<g transform="translate(0.000000,711.000000) scale(0.100000,-0.100000)"
fill="#000000" stroke="none">
<path d="M728 7045 c-2 -3 -18 -7 -34 -9 -99 -14 -252 -77 -338 -140 -163
-117 -292 -307 -331 -484 -3 -12 -8 -32 -12 -44 -10 -29 -15 -5576 -6 -5591 4
-7 8 -18 8 -27 10 -122 112 -322 221 -433 97 -100 253 -195 364 -222 3 -1 16
-5 30 -8 14 -4 39 -10 55 -14 17 -4 1301 -9 2855 -10 2936 -2 2820 -4 2965 31
121 30 271 120 373 226 75 78 175 244 185 308 1 9 6 22 10 28 4 7 13 43 22 80
21 101 22 5521 0 5629 -32 163 -111 318 -219 428 -96 98 -249 190 -384 229
l-77 23 -2841 2 c-1562 2 -2843 1 -2846 -2z"/>
</g>
</svg>
